<svg xmlns="http://www.w3.org/2000/svg" xmlns:xlink="http://www.w3.org/1999/xlink" width="53.84" height="53.84" viewBox="0 0 53.84 53.84">
  <defs>
    <filter id="Ellipse_2" x="0" y="0" width="53.84" height="53.84" filterUnits="userSpaceOnUse">
      <feOffset dy="1" input="SourceAlpha"/>
      <feGaussianBlur stdDeviation="3" result="blur"/>
      <feFlood flood-opacity="0.102"/>
      <feComposite operator="in" in2="blur"/>
      <feComposite in="SourceGraphic"/>
    </filter>
  </defs>
  <g id="Group_12" data-name="Group 12" transform="translate(-599.51 -563.98)">
    <g transform="matrix(1, 0, 0, 1, 599.51, 563.98)" filter="url(#Ellipse_2)">
      <circle id="Ellipse_2-2" data-name="Ellipse 2" cx="17.92" cy="17.92" r="17.92" transform="translate(9 8)" fill="#fff"/>
    </g>
    <path id="Op_component_1" data-name="Op component 1" d="M618.232,598.433V582.794l.1-.211A1.115,1.115,0,0,1,619.7,582c0,.136,0,.278,0,.42a1.864,1.864,0,0,0,.725,1.546,1.966,1.966,0,0,0,3.159-1.559c.006-.147,0-.295,0-.436h.5c0,.261-.014.5,0,.742a1.669,1.669,0,0,0,1.423,1.616,2.943,2.943,0,0,0,.906.011,1.6,1.6,0,0,0,1.532-1.776v-.6h.484c0,.295.009.571,0,.847a1.261,1.261,0,0,0,.668,1.2,2.359,2.359,0,0,0,2.543,0,1.255,1.255,0,0,0,.666-1.2c-.013-.282,0-.564,0-.866.311,0,.578,0,.845,0a1.058,1.058,0,0,1,1.094,1.1q.021,3.451.037,6.9c0,.083-.009.167-.015.254a4.735,4.735,0,1,0-2.106,9.218h-.284q-6.224,0-12.448.006a1.065,1.065,0,0,1-.975-.542A4.172,4.172,0,0,1,618.232,598.433Zm8.024-11.135c-1.7,0-3.4,0-5.1,0a.943.943,0,0,0-.972.965.9.9,0,0,0,.95.971c.089,0,.179,0,.268,0h8.558c.456,0,.912.008,1.368,0a.939.939,0,0,0,.97-1.016.92.92,0,0,0-1-.921Q628.777,587.3,626.256,587.3Zm-2.461,3.879c-.885,0-1.771,0-2.656,0a.859.859,0,0,0-.926.72.953.953,0,0,0,1.01,1.215q2.576,0,5.152,0a1.079,1.079,0,0,0,1.086-.973.978.978,0,0,0-1.062-.964Q625.1,591.174,623.795,591.177Zm-.5,5.817c.724,0,1.448,0,2.172,0a1.012,1.012,0,0,0,1.02-.966.927.927,0,0,0-1.01-.973q-2.1-.031-4.209-.051a1.093,1.093,0,0,0-1.087,1.037.926.926,0,0,0,1.049.953C621.923,597,622.611,596.994,623.3,596.994Z" fill="#1772d0"/>
  </g>
</svg>
