<svg xmlns="http://www.w3.org/2000/svg" width="16.934" height="16.934" viewBox="0 0 16.934 16.934">
  <path id="Shape_13" data-name="Shape 13" d="M958.731,51.4l-4.246-1.416a1.422,1.422,0,0,1-.96-1.341v-12.7a1.412,1.412,0,0,1,1.411-1.411c.034,0,.067.013.1.015a.537.537,0,0,1,.076-.015H962.7a2.119,2.119,0,0,1,2.117,2.117v2.117a.706.706,0,1,1-1.411,0V36.65a.706.706,0,0,0-.706-.706H959.41l.21.069a1.422,1.422,0,0,1,.96,1.342V47.939H962.7a.706.706,0,0,0,.706-.706V44.411a.706.706,0,1,1,1.411,0v2.822a2.12,2.12,0,0,1-2.117,2.117H960.58v.706a1.413,1.413,0,0,1-1.411,1.411A1.472,1.472,0,0,1,958.731,51.4Zm7.929-6.339a.706.706,0,0,1-.436-.652V42.295H963.4a.706.706,0,1,1,0-1.411h2.822V38.767a.7.7,0,0,1,1.2-.5l2.822,2.821a.7.7,0,0,1,0,1l-2.822,2.822a.7.7,0,0,1-.769.153Z" transform="translate(-953.525 -34.533)" fill="#ca242b"/>
</svg>
