<svg xmlns="http://www.w3.org/2000/svg" xmlns:xlink="http://www.w3.org/1999/xlink" width="53.84" height="53.84" viewBox="0 0 53.84 53.84">
  <defs>
    <filter id="Ellipse_2_copy_2" x="0" y="0" width="53.84" height="53.84" filterUnits="userSpaceOnUse">
      <feOffset dy="1" input="SourceAlpha"/>
      <feGaussianBlur stdDeviation="3" result="blur"/>
      <feFlood flood-opacity="0.102"/>
      <feComposite operator="in" in2="blur"/>
      <feComposite in="SourceGraphic"/>
    </filter>
  </defs>
  <g id="Group_10" data-name="Group 10" transform="translate(-378.76 -563.98)">
    <g transform="matrix(1, 0, 0, 1, 378.76, 563.98)" filter="url(#Ellipse_2_copy_2)">
      <circle id="Ellipse_2_copy_2-2" data-name="Ellipse 2 copy 2" cx="17.92" cy="17.92" r="17.92" transform="translate(9 8)" fill="#ca242b"/>
    </g>
    <path id="Shape_4" data-name="Shape 4" d="M401.525,599.837a.429.429,0,0,1-.428-.427v-.736a.429.429,0,0,1,.428-.427h3.288v-1.065a6.282,6.282,0,0,1-3.118-1.325l1.12-1.119a4.776,4.776,0,0,0,7.574-3.867v-1.5a.429.429,0,0,1,.428-.427h.737a.428.428,0,0,1,.428.427v1.5a6.456,6.456,0,0,1-5.576,6.311v1.065h3.288a.428.428,0,0,1,.428.427v.736a.428.428,0,0,1-.428.427Zm-6.12-2.595,4.226-4.22a6.154,6.154,0,0,1-.392-2.152v-1.5a.428.428,0,0,1,.428-.427h.735a.427.427,0,0,1,.428.427v1.5a4.661,4.661,0,0,0,.082.873l1-1v-7.891a3.7,3.7,0,0,1,7.4,0v.5l4.057-4.052,1.225,1.224-5.282,5.275-7,6.995-.689.689-1.122,1.121-3.862,3.857Zm8.022-3.117,5.882-5.873v2.894a3.7,3.7,0,0,1-5.882,2.979Z" fill="#fff"/>
  </g>
</svg>
