<svg xmlns="http://www.w3.org/2000/svg" width="23.297" height="23.297" viewBox="0 0 23.297 23.297">
  <path id="Shape_12" data-name="Shape 12" d="M3136.561,600.447l4.285.5c-.68,2.358-2.539,4.934-4.285,5.055Zm-5.407.5,4.285-.5V606C3133.693,605.878,3131.833,603.3,3131.154,600.944Zm10.805.29,2.756.914a10.911,10.911,0,0,1-5.078,3.352A12.637,12.637,0,0,0,3141.959,601.234Zm-14.675.914,2.756-.914a12.654,12.654,0,0,0,2.322,4.265A10.919,10.919,0,0,1,3127.284,602.148Zm17.835-.979c-.779-.254-1.549-.533-2.322-.8l-.441-.154c.249-1.8.488-3.531.731-5.288h4.52a10.671,10.671,0,0,1-2.064,6.185.4.4,0,0,1-.272.082A.5.5,0,0,1,3145.119,601.169Zm-18.662-.061a10.679,10.679,0,0,1-2.065-6.185h4.52c.243,1.758.482,3.486.732,5.288l-.442.154c-.772.271-1.542.55-2.321.8a.5.5,0,0,1-.151.021A.4.4,0,0,1,3126.457,601.107Zm14.257-1.211q-1.513-.205-3.03-.386c-.392-.047-.788-.066-1.173-.1v-4.5h5.346c.025.077.056.122.05.162-.212,1.516-.43,3.03-.643,4.545-.035.244-.149.3-.3.3A2.015,2.015,0,0,1,3140.714,599.9Zm-9.978-.272c-.212-1.515-.43-3.029-.643-4.545-.005-.04.025-.085.05-.162h5.346v4.5c-.386.031-.781.049-1.174.1q-1.516.181-3.029.386a2.019,2.019,0,0,1-.256.028C3130.884,599.924,3130.77,599.868,3130.736,599.624Zm5.835-5.779V589.4l4.613-.49a18.832,18.832,0,0,1,.715,4.937Zm-6.468,0a18.8,18.8,0,0,1,.715-4.937l4.613.49v4.448Zm12.982-.03c-.246-1.773-.487-3.512-.727-5.246l3.1-1.076a11.176,11.176,0,0,1,2.194,6.322Zm-18.733,0a11.183,11.183,0,0,1,2.2-6.322l3.1,1.076c-.24,1.734-.482,3.473-.727,5.246Zm12.213-11.112c2.477.823,3.394,2.885,4.36,5.127l-4.36.5Zm-5.487,5.127c.965-2.243,1.883-4.3,4.359-5.127v5.623Zm8.521-4.571a11.612,11.612,0,0,1,5.173,3.382l-2.821.9A12.954,12.954,0,0,0,3139.6,583.259Zm-12.369,3.382a11.61,11.61,0,0,1,5.172-3.382,12.989,12.989,0,0,0-2.353,4.287Z" transform="translate(-3124.351 -582.703)" fill="#ca242b"/>
</svg>
