<svg xmlns="http://www.w3.org/2000/svg" xmlns:xlink="http://www.w3.org/1999/xlink" width="53.84" height="53.84" viewBox="0 0 53.84 53.84">
  <defs>
    <filter id="Ellipse_2_copy" x="0" y="0" width="53.84" height="53.84" filterUnits="userSpaceOnUse">
      <feOffset dy="1" input="SourceAlpha"/>
      <feGaussianBlur stdDeviation="3" result="blur"/>
      <feFlood flood-opacity="0.102"/>
      <feComposite operator="in" in2="blur"/>
      <feComposite in="SourceGraphic"/>
    </filter>
  </defs>
  <g id="Group_11" data-name="Group 11" transform="translate(-673.34 -563.98)">
    <g transform="matrix(1, 0, 0, 1, 673.34, 563.98)" filter="url(#Ellipse_2_copy)">
      <circle id="Ellipse_2_copy-2" data-name="Ellipse 2 copy" cx="17.92" cy="17.92" r="17.92" transform="translate(9 8)" fill="#fff"/>
    </g>
    <path id="Shape_7" data-name="Shape 7" d="M708.458,587.437l-1.488-.189a7.467,7.467,0,0,0-.451-1.088l.919-1.184a1.177,1.177,0,0,0-.1-1.567l-1.247-1.247a1.18,1.18,0,0,0-1.571-.1l-1.182.919a7.456,7.456,0,0,0-1.088-.451l-.189-1.486A1.186,1.186,0,0,0,700.887,580h-1.773a1.186,1.186,0,0,0-1.177,1.043l-.189,1.488a7.358,7.358,0,0,0-1.089.451l-1.183-.919a1.178,1.178,0,0,0-1.567.1l-1.247,1.246a1.18,1.18,0,0,0-.1,1.572l.919,1.183a7.4,7.4,0,0,0-.451,1.088l-1.486.189a1.186,1.186,0,0,0-1.045,1.176v1.773a1.186,1.186,0,0,0,1.043,1.177l1.489.189a7.482,7.482,0,0,0,.451,1.088l-.919,1.183a1.177,1.177,0,0,0,.1,1.567l1.247,1.247a1.181,1.181,0,0,0,1.572.1l1.183-.919a7.292,7.292,0,0,0,1.088.451l.189,1.485A1.185,1.185,0,0,0,699.114,599h1.773a1.185,1.185,0,0,0,1.176-1.043l.189-1.488a7.47,7.47,0,0,0,1.088-.451l1.184.919a1.177,1.177,0,0,0,1.567-.1l1.247-1.247a1.179,1.179,0,0,0,.1-1.571l-.919-1.183a7.29,7.29,0,0,0,.451-1.088l1.485-.189a1.186,1.186,0,0,0,1.045-1.177v-1.773a1.184,1.184,0,0,0-1.042-1.176ZM700,593.458a3.958,3.958,0,1,1,3.959-3.958A3.963,3.963,0,0,1,700,593.458Z" fill="#1772d0"/>
  </g>
</svg>
